HIERARCHY
ROOT Hips
{
    OFFSET 0.000000 0.000000 0.000000
    CHANNELS 6 Xposition Yposition Zposition Zrotation Xrotation Yrotation
    JOINT Spine
    {
        OFFSET -0.000000 14.517291 0.000000
        CHANNELS 3 Zrotation Xrotation Yrotation
        JOINT Spine1
        {
            OFFSET -0.000000 37.558300 0.000000
            CHANNELS 3 Zrotation Xrotation Yrotation
            JOINT Neck
            {
                OFFSET -0.000000 37.404057 3.400369
                CHANNELS 3 Zrotation Xrotation Yrotation
                JOINT Head
                {
                    OFFSET -0.000000 24.785618 -3.540803
                    CHANNELS 3 Zrotation Xrotation Yrotation
                    End Site
                    {
                        OFFSET -0.000000 35.408028 0.000000
                    }
                }
            }
            JOINT LeftShoulder
            {
                OFFSET 6.992933 33.973492 -0.192664
                CHANNELS 3 Zrotation Xrotation Yrotation
                JOINT LeftArm
                {
                    OFFSET 21.527611 0.000000 0.000000
                    CHANNELS 3 Zrotation Xrotation Yrotation
                    JOINT LeftForeArm
                    {
                        OFFSET 56.353916 0.000000 0.000000
                        CHANNELS 3 Zrotation Xrotation Yrotation
                        JOINT LeftHand
                        {
                            OFFSET 47.774071 0.000000 0.000000
                            CHANNELS 3 Zrotation Xrotation Yrotation
                            End Site
                            {
                                OFFSET 26.556021 0.000000 0.000000
                            }
                        }
                    }
                }
            }
            JOINT RightShoulder
            {
                OFFSET -7.065357 33.973492 -0.192664
                CHANNELS 3 Zrotation Xrotation Yrotation
                JOINT RightArm
                {
                    OFFSET -21.527611 0.000000 0.000000
                    CHANNELS 3 Zrotation Xrotation Yrotation
                    JOINT RightForeArm
                    {
                        OFFSET -56.353916 0.000000 0.000000
                        CHANNELS 3 Zrotation Xrotation Yrotation
                        JOINT RightHand
                        {
                            OFFSET -47.774071 0.000000 0.000000
                            CHANNELS 3 Zrotation Xrotation Yrotation
                            End Site
                            {
                                OFFSET -26.556021 0.000000 0.000000
                            }
                        }
                    }
                }
            }
        }
    }
    JOINT LeftUpLeg
    {
        OFFSET 17.704014 0.000000 0.000000
        CHANNELS 3 Zrotation Xrotation Yrotation
        JOINT LeftLeg
        {
            OFFSET -0.000000 -81.181816 0.000000
            CHANNELS 3 Zrotation Xrotation Yrotation
            JOINT LeftFoot
            {
                OFFSET -0.000000 -62.821102 0.000000
                CHANNELS 3 Zrotation Xrotation Yrotation
                JOINT LeftToeBase
                {
                    OFFSET -0.000000 -11.507608 26.556021
                    CHANNELS 3 Zrotation Xrotation Yrotation
                    End Site
                    {
                        OFFSET -0.000000 0.000000 7.081605
                    }
                }
            }
        }
    }
    JOINT RightUpLeg
    {
        OFFSET -17.704014 0.000000 0.000000
        CHANNELS 3 Zrotation Xrotation Yrotation
        JOINT RightLeg
        {
            OFFSET -0.000000 -81.181816 0.000000
            CHANNELS 3 Zrotation Xrotation Yrotation
            JOINT RightFoot
            {
                OFFSET -0.000000 -62.821102 0.000000
                CHANNELS 3 Zrotation Xrotation Yrotation
                JOINT RightToeBase
                {
                    OFFSET -0.000000 -11.507608 26.556021
                    CHANNELS 3 Zrotation Xrotation Yrotation
                    End Site
                    {
                        OFFSET -0.000000 0.000000 7.081605
                    }
                }
            }
        }
    }
}
MOTION
Frames:    4
Frame Time:    0.008333
9.492426    148.261398    -53.296398    14.064615    -0.286829    30.275784    10.803984    -2.606323    -5.140432    6.809725    -2.337889    -1.647067    9.392689    -4.788204    -8.159918    -2.017089    7.744647    -10.441842    4.408026    10.182425    -15.262492    -37.300228    22.220337    -50.630840    -0.312034    -30.760576    -116.371841    -6.943558    -30.730980    -8.833505    3.624824    6.981060    -7.400651    28.128788    10.509285    40.714577    -3.996598    12.646633    50.376694    -20.086472    7.855331    36.760204    0.380457    11.294100    2.239296    -13.681316    34.548531    -19.078665    7.580058    -32.190395    44.524681    0.000000    0.000000    0.000000    -38.180561    -21.855070    -4.812851    17.524275    44.377335    -11.673905    8.007629    -11.436290    -13.564290    0.000000    0.000000    0.000000    
9.485072    148.249817    -53.284668    14.065469    -0.286361    30.252903    10.802405    -2.612252    -5.146446    6.817614    -2.327225    -1.649695    9.396853    -4.783659    -8.163824    -2.041509    7.792622    -10.447301    4.386562    10.197979    -15.235594    -37.319878    22.212727    -50.624687    -0.309300    -30.753851    -116.394371    -6.946521    -30.719603    -8.856003    3.613803    6.981736    -7.388831    28.122404    10.521574    40.717487    -3.995384    12.630610    50.370926    -20.080999    7.843684    36.741810    0.377103    11.279079    2.237450    -13.686095    34.587814    -19.078156    7.584975    -32.202686    44.542183    0.000000    0.000000    0.000000    -38.188137    -21.877274    -4.814408    17.551474    44.395954    -11.674806    8.012646    -11.449693    -13.569443    0.000000    0.000000    0.000000    
9.477657    148.241150    -53.270901    14.065598    -0.284307    30.231165    10.792406    -2.624759    -5.145760    6.828712    -2.312366    -1.650459    9.380850    -4.765430    -8.170554    -2.025204    7.811801    -10.448194    4.375125    10.203312    -15.225734    -37.345234    22.213352    -50.607918    -0.306595    -30.754845    -116.419289    -6.936359    -30.718534    -8.843723    3.607325    6.987175    -7.385742    28.128057    10.510608    40.724552    -3.988371    12.636433    50.358612    -20.083462    7.850222    36.715031    0.379668    11.269308    2.201306    -13.732686    34.604092    -19.021051    7.584262    -32.214523    44.561691    0.000000    0.000000    0.000000    -38.194546    -21.897753    -4.817084    17.567863    44.418045    -11.674327    8.016416    -11.465986    -13.541594    0.000000    0.000000    0.000000    
9.466842    148.233063    -53.264271    14.063278    -0.285198    30.205601    10.784140    -2.626799    -5.145243    6.840255    -2.302574    -1.650646    9.369021    -4.759920    -8.173194    -2.023037    7.841224    -10.447532    4.366216    10.202024    -15.222094    -37.391605    22.212622    -50.569118    -0.304071    -30.756191    -116.442238    -6.960182    -30.713806    -8.869600    3.601094    6.989433    -7.387616    28.126326    10.510849    40.737690    -3.991228    12.636046    50.360367    -20.094538    7.845015    36.727695    0.377745    11.258734    2.165370    -13.761865    34.622684    -18.978607    7.592083    -32.225956    44.589794    0.000000    0.000000    0.000000    -38.195671    -21.919088    -4.826931    17.581730    44.428593    -11.689228    7.993831    -11.464949    -13.508136    0.000000    0.000000    0.000000    
